<?xml version="1.0" encoding="UTF-8"?><svg id="b" xmlns="http://www.w3.org/2000/svg" viewBox="0 0 138.67 25.46"><g id="c"><path d="M9.8,4.97l-7.42,14.54c-.36.71.6,1.6,1.18.91C9.52,13.26,16.97,7.5,25.39,3.52l-1.03-1.03c-1.86,3.47-3.17,7.28-4.22,11.06-.98,3.55-2.04,7.64-1.28,11.34.13.62,1.09.75,1.37.18,1.63-3.3,3.79-6.38,6.07-9.26,2.15-2.71,4.67-5.88,7.89-7.37l-1.13-.65c.08,4.29.17,8.58.25,12.87.02.78.98.97,1.4.38,2.04-2.88,3.98-5.84,6.24-8.57,2.1-2.54,4.65-5.42,7.95-6.33l-.58-1.37c-2.56,1.75-3.8,5.27-4.9,8.02-1.28,3.21-2.19,6.6-3.64,9.74-.4.87.74,1.56,1.3.76,2.58-3.74,5.38-7.39,8.73-10.48,3.1-2.86,7.05-5.57,11.47-5.07l-.65-1.13c-1.96,3.52-2.33,7.73-4.29,11.24-.34.61.38,1.48,1.03,1.03,5.76-4.06,10.04-9.87,12.2-16.58l-1.47-.2c-.43,7.49.21,14.99,1.91,22.3.13.55.87.72,1.25.33,5.4-5.51,10.01-11.73,13.71-18.5l-1.4-.38c.16,5.92.32,11.85.49,17.77.02.84,1.23,1.02,1.47.2,1.33-4.45,3.83-8.65,6.97-12.07,2.91-3.17,6.86-6.15,11.39-5.8l-.65-1.13c-3.39,6.14-4.4,13.33-7.78,19.47l1.3.76c4.36-9.47,11.17-17.67,19.71-23.65l-1.03-1.03c-3.3,7.09-5.04,14.78-5.08,22.6,0,.52.66,1,1.13.65,6.05-4.61,10.29-11.26,11.82-18.73l-1.47-.2c-.48,6.83.77,13.63,3.57,19.87.22.49,1.07.49,1.3,0,2.54-5.64,5.07-11.28,7.61-16.92l-1.37-.58c-1.36,4.69-1.43,9.61-.2,14.34.23.87,1.39.6,1.47-.2.33-3.11-3.2-4.38-5.69-4.71-2.25-.3-4.58-.24-6.85-.33-2.48-.1-4.95-.19-7.43-.3-9.33-.38-18.67-.79-28-1.25-17.64-.87-35.28-1.95-52.89-3.27-10.89-.82-21.77-1.72-32.65-2.68v1.5c18.1.07,36.21,0,54.31-.15,17.13-.13,34.27-.31,51.4-.38,10.5-.04,21-.05,31.5,0,.97,0,.97-1.5,0-1.5-18.1-.07-36.21,0-54.31.15-17.13.13-34.27.31-51.4.38-10.5.04-21,.05-31.5,0-.98,0-.95,1.42,0,1.5,17.95,1.59,35.91,3.01,53.88,4.16,17.23,1.11,34.48,1.97,51.73,2.71,5.2.22,10.39.43,15.59.63,2.4.09,4.97-.07,7.33.46,1.57.35,3.68,1.12,3.47,3.07l1.47-.2c-1.16-4.47-1.09-9.1.2-13.54.23-.79-1.02-1.37-1.37-.58-2.54,5.64-5.07,11.28-7.61,16.92h1.3c-2.7-6-3.83-12.56-3.37-19.12.06-.84-1.3-1.03-1.47-.2-1.44,7.06-5.39,13.45-11.13,17.83l1.13.65c.04-7.55,1.69-15,4.87-21.84.28-.61-.35-1.5-1.03-1.03-8.75,6.12-15.78,14.48-20.25,24.19-.4.86.82,1.62,1.3.76,3.39-6.14,4.4-13.33,7.78-19.47.29-.52-.08-1.08-.65-1.13-4.79-.37-9.07,2.64-12.21,5.98-3.43,3.65-6.16,8.18-7.6,13l1.47.2c-.16-5.92-.32-11.85-.49-17.77-.02-.72-1.03-1.05-1.4-.38-3.64,6.66-8.16,12.77-13.48,18.19l1.25.33c-1.67-7.18-2.28-14.54-1.86-21.9.05-.87-1.22-.98-1.47-.2-2.03,6.32-6.08,11.86-11.51,15.68l1.03,1.03c1.96-3.52,2.33-7.73,4.29-11.24.3-.54-.09-1.07-.65-1.13-4.56-.52-8.71,2.12-11.98,5.01-3.69,3.26-6.73,7.24-9.52,11.29l1.3.76c1.32-2.87,2.2-5.94,3.32-8.9.64-1.68,1.32-3.35,2.15-4.94.63-1.21,1.37-2.6,2.53-3.39.68-.46.28-1.61-.58-1.37-3.45.94-6.15,3.78-8.38,6.43-2.44,2.9-4.52,6.07-6.7,9.15l1.4.38c-.08-4.29-.17-8.58-.25-12.87-.01-.61-.62-.88-1.13-.65-3.34,1.54-5.97,4.79-8.2,7.6-2.36,2.97-4.62,6.15-6.31,9.56l1.37.18c-.73-3.51.42-7.51,1.37-10.87,1-3.54,2.23-7.12,3.98-10.37.37-.69-.36-1.34-1.03-1.03C16.11,6.25,8.53,12.11,2.49,19.36l1.18.91,7.42-14.54c.44-.86-.86-1.62-1.3-.76h0Z"/></g></svg>
