<?xml version="1.0" encoding="UTF-8"?><svg id="b" xmlns="http://www.w3.org/2000/svg" viewBox="0 0 153.53 28.8"><g id="c"><path d="M23.3,6.53l-7.42,14.54c-.73,1.43,1.21,3.2,2.36,1.82,5.93-7.12,13.31-12.82,21.68-16.78l-2.05-2.05c-2.71,5.13-3.52,10.97-2.31,16.65.26,1.23,2.17,1.5,2.74.36,2.23-4.48,5.87-7.96,10.43-10.02l-2.26-1.3c.08,4.29.17,8.58.25,12.87.03,1.58,1.95,1.92,2.8.76,3.21-4.42,7.92-7.56,13.19-8.94l-1.16-2.74c-3.76,2.47-6.79,5.86-8.75,9.92-.84,1.75,1.48,3.1,2.59,1.51,4.45-6.35,12.34-9.68,19.98-8.74l-1.3-2.26c-1.41,2.44-2.82,4.87-4.23,7.31-.71,1.23.78,2.95,2.05,2.05,5.93-4.18,10.32-10.12,12.54-17.03l-2.95-.4c-.44,7.55.23,15.13,1.94,22.5.26,1.1,1.74,1.45,2.51.66,5.44-5.55,10.1-11.83,13.83-18.65l-2.8-.76c.16,5.92.32,11.85.49,17.77.05,1.69,2.45,2.04,2.95.4,2.27-7.53,9.98-12.62,17.78-11.97l-1.3-2.26c-2.64,4.71-5.29,9.42-7.93,14.13l2.59,1.51c4.31-9.35,11.01-17.47,19.45-23.38l-2.05-2.05c-3.36,7.21-5.14,15.02-5.18,22.98,0,1.03,1.32,2.01,2.26,1.3,6.21-4.73,10.6-11.5,12.17-19.17l-2.95-.4c-.49,6.97.82,13.89,3.68,20.25.44.98,2.15.98,2.59,0,2.54-5.64,5.07-11.28,7.61-16.92l-2.74-1.16c-1.4,4.81-1.46,9.89-.2,14.74.45,1.74,2.78,1.2,2.95-.4.38-3.56-3.57-5.09-6.44-5.46-2.28-.29-4.62-.24-6.92-.33-2.57-.1-5.14-.21-7.71-.32-10.27-.44-20.55-.94-30.82-1.49-20.37-1.1-40.73-2.42-61.08-3.97-11.58-.88-23.15-1.84-34.72-2.86v3c19.62.08,39.24.16,58.86.24,19.54.08,39.07.16,58.61.24,11.06.05,22.11.09,33.17.14,1.93,0,1.93-2.99,0-3-19.62-.08-39.24-.16-58.86-.24s-39.07-.16-58.61-.24c-11.06-.05-22.11-.09-33.17-.14-1.96,0-1.89,2.83,0,3,19.66,1.74,39.34,3.28,59.04,4.6,19.69,1.33,39.4,2.44,59.12,3.35,5.47.25,10.94.49,16.41.7,2.35.09,4.88-.08,7.19.43,1.24.28,3.08.79,2.92,2.35l2.95-.4c-1.13-4.35-1.06-8.83.2-13.14.46-1.59-2.03-2.74-2.74-1.16-2.54,5.64-5.07,11.28-7.61,16.92h2.59c-2.64-5.88-3.72-12.32-3.27-18.74.12-1.67-2.61-2.06-2.95-.4-1.4,6.86-5.2,13.12-10.79,17.38l2.26,1.3c.04-7.41,1.64-14.74,4.77-21.46.57-1.22-.7-3-2.05-2.05-8.85,6.2-16,14.63-20.52,24.46-.79,1.72,1.63,3.23,2.59,1.51,2.64-4.71,5.29-9.42,7.93-14.13.59-1.05-.17-2.16-1.3-2.26-9.12-.76-18.04,5.45-20.67,14.18l2.95.4c-.16-5.92-.32-11.85-.49-17.77-.04-1.44-2.06-2.1-2.8-.76-3.61,6.61-8.09,12.66-13.36,18.04l2.51.66c-1.65-7.12-2.25-14.41-1.83-21.7.1-1.75-2.45-1.95-2.95-.4-1.97,6.12-5.9,11.53-11.16,15.24l2.05,2.05c1.41-2.44,2.82-4.87,4.23-7.31.62-1.08-.2-2.12-1.3-2.26-8.73-1.06-17.56,3.07-22.57,10.23l2.59,1.51c1.73-3.6,4.32-6.65,7.67-8.85,1.39-.92.54-3.18-1.16-2.74-6.07,1.59-11.31,5.26-14.98,10.32l2.8.76c-.08-4.29-.17-8.58-.25-12.87-.02-1.22-1.24-1.76-2.26-1.3-4.98,2.25-9.07,6.21-11.51,11.1l2.74.36c-1.04-4.86-.32-9.94,2.01-14.34.73-1.38-.71-2.68-2.05-2.05-8.58,4.05-16.22,9.96-22.29,17.25l2.36,1.82,7.42-14.54c.88-1.72-1.71-3.24-2.59-1.51h0Z"/></g></svg>